<svg width="37" height="40" fill="none" xmlns="http://www.w3.org/2000/svg"><g id="diploma" fill-rule="evenodd" clip-rule="evenodd" fill="#002946"><path id="Shape" d="M24.03 12.822H7.65a.688.688 0 100 1.375h16.38a.688.688 0 100-1.375z"/><path id="Shape_2" d="M26.86 16.12H10.48a.688.688 0 000 1.374h16.38a.688.688 0 100-1.375z"/><path id="Shape_3" d="M36.123 27.74l-9.352-17.324a5.274 5.274 0 004.174-5.151A5.271 5.271 0 0025.68 0H6.55A6.437 6.437 0 00.995 3.135 6.437 6.437 0 00.81 9.51l8.53 16.195H6.898a5.271 5.271 0 00-5.265 5.265 5.271 5.271 0 005.265 5.266h18.296v3.077a.687.687 0 001.13.525l2.149-1.811 2.148 1.811a.687.687 0 001.13-.526v-3.118a5.715 5.715 0 004.302-2.855 5.722 5.722 0 00.071-5.599zM25.68 1.375a3.894 3.894 0 013.89 3.89 3.894 3.894 0 01-3.888 3.89H10.094a5.252 5.252 0 001.72-3.89 5.25 5.25 0 00-1.72-3.89H25.68zM6.897 34.86a3.894 3.894 0 01-3.89-3.89 3.894 3.894 0 013.89-3.89h3.168l.668 1.268.022.045a4.348 4.348 0 01-.093 4.33 4.348 4.348 0 01-3.765 2.137zm23.479 2.973l-1.461-1.231a.686.686 0 00-.886 0l-1.46 1.231v-5.838l.024.012c.06.03.121.06.183.087l.021.01a4.203 4.203 0 003.35 0l.022-.01a4.11 4.11 0 00.18-.087l.027-.012v5.838zm-.22-7.328a2.77 2.77 0 01-1.563.572c-1.57.068-2.921-1.228-2.921-2.797 0-1.544 1.256-2.8 2.8-2.8 1.544 0 2.8 1.256 2.8 2.8 0 .894-.441 1.708-1.117 2.224zm4.703 2.15a4.35 4.35 0 01-3.108 2.15V30.86c.56-.71.896-1.607.896-2.58a4.18 4.18 0 00-4.175-4.175 4.18 4.18 0 00-4.175 4.175c0 .973.335 1.87.896 2.58v4H10.64a5.81 5.81 0 001.203-1.433 5.71 5.71 0 00.127-5.68l-.884-1.68-.002-.003L2.027 8.869a5.073 5.073 0 01.146-5.024 5.073 5.073 0 014.377-2.47 3.894 3.894 0 013.89 3.89 3.894 3.894 0 01-3.89 3.89.688.688 0 100 1.375h18.72l9.643 17.863a4.356 4.356 0 01-.054 4.262z"/></g></svg>