<svg width="20" height="20" fill="none" xmlns="http://www.w3.org/2000/svg"><path d="M1.027 12.72L11.191 2.67a4.347 4.347 0 016.1 0 4.232 4.232 0 010 6.031l-9.149 9.046a2.898 2.898 0 01-4.066 0 2.82 2.82 0 010-4.02l9.149-9.047a1.449 1.449 0 012.033 0 1.411 1.411 0 010 2.01l-8.132 8.042 1.017 1.005 8.13-8.042a2.82 2.82 0 000-4.02 2.898 2.898 0 00-4.065 0L3.06 12.72a4.231 4.231 0 000 6.03 4.347 4.347 0 006.099 0l9.656-9.548-.035-.035a5.637 5.637 0 00-.473-7.504c-2.073-2.05-5.332-2.203-7.588-.468l-.035-.035L.01 11.714l1.016 1.006z" fill="#005A8D"/></svg>