<svg width="40" height="47" fill="none" xmlns="http://www.w3.org/2000/svg"><g id="welder" fill-rule="evenodd" clip-rule="evenodd" fill="#002946"><path id="Shape" d="M40 20.722c0-7.4-5.584-13.51-12.758-14.365l-3.77-4.64A4.071 4.071 0 0020.3.207h-4.893a4.092 4.092 0 00-4.086 4.088c0 .947.331 1.87.932 2.598l3.001 3.644c-.252.255-.498.516-.733.79l-.454.531 2.5 2.5a10.966 10.966 0 00-2.227 6.604c0 4.02 2.185 7.532 5.425 9.434H3.774v-.755h-1.51v.755H0v1.51h2.264v.754h1.51v-.754h4.528v3.019H5.283v5.283a2.267 2.267 0 002.264 2.264h.755v2.264A2.267 2.267 0 0010.566 47h1.51a2.267 2.267 0 002.264-2.264v-2.264h16.603v2.264A2.267 2.267 0 0033.208 47h1.509a2.267 2.267 0 002.264-2.264v-2.264h.755A2.267 2.267 0 0040 40.208v-9.812h-3.725A14.441 14.441 0 0040 20.722zM13.418 5.934a2.58 2.58 0 011.99-4.217h4.893c.78 0 1.509.347 2 .952l2.913 3.585c-.613.013-1.22.064-1.82.154L21.127 3.62a1.062 1.062 0 00-.828-.394h-4.892a1.07 1.07 0 00-.825 1.748l3.006 3.65c-.42.276-.825.575-1.217.896l-2.954-3.586zm8.313.82c-.979.266-1.924.635-2.822 1.099l-2.567-3.117h3.749l1.64 2.018zm-5.597 5.037a12.946 12.946 0 019.389-4.036c7.15 0 12.968 5.817 12.968 12.967 0 3.558-1.463 6.941-4.037 9.389l-7.537-7.537-.531.462a2.237 2.237 0 01-1.48.568 2.267 2.267 0 01-2.264-2.264c0-.686.308-1.183.566-1.48l.464-.53-7.538-7.54zm16.471 18.605h-1.79c.37-.217.728-.458 1.072-.718l.718.718zM15.85 20.962c0-1.985.64-3.925 1.797-5.526l4.008 4.009a3.735 3.735 0 00-.522 1.895 3.778 3.778 0 003.774 3.773c.665 0 1.318-.182 1.894-.521l4.008 4.008a9.455 9.455 0 01-5.525 1.796c-5.202 0-9.434-4.232-9.434-9.434zm-3.02 10.944h12.076v-.02c.126.005.25.02.377.02 1.432 0 2.84-.293 4.151-.83v3.849H12.83v-3.02zm-3.019 0h1.51v3.019H9.81v-3.02zm3.02 12.83a.755.755 0 01-.755.755h-1.51a.755.755 0 01-.755-.755v-2.264h3.02v2.264zm22.64 0a.755.755 0 01-.754.755h-1.51a.756.756 0 01-.754-.755v-2.264h3.019v2.264zm3.02-12.83v8.302a.756.756 0 01-.755.754H7.547a.755.755 0 01-.755-.754v-3.774h24.151v-4.528h7.548z"/><path id="Shape_2" d="M25.283 9.264c-2.09 0-4.141.558-5.933 1.615l.767 1.3a10.177 10.177 0 015.166-1.405c4.292 0 8.148 2.714 9.595 6.751l1.42-.508a11.727 11.727 0 00-11.015-7.753z"/><path id="Shape_3" d="M36.697 18.387l-1.473.33c.088.39.153.79.194 1.19l1.501-.154a11.737 11.737 0 00-.222-1.366z"/><path id="Shape_4" d="M34.717 33.415a2.267 2.267 0 00-2.264 2.264 2.267 2.267 0 002.264 2.264 2.267 2.267 0 002.264-2.264 2.267 2.267 0 00-2.264-2.264zm0 3.019a.755.755 0 11.001-1.51.755.755 0 01-.001 1.51z"/></g></svg>