<svg width="233" height="34" fill="none" xmlns="http://www.w3.org/2000/svg"><path d="M2.49 28V7.21h13.14v3.21H6.27v5.31h8.31v3.21H6.27V28H2.49zm19.291-10.41c0 1.14.14 2.18.42 3.12.28.92.68 1.71 1.2 2.37.54.64 1.19 1.14 1.95 1.5.76.36 1.62.54 2.58.54.94 0 1.79-.18 2.55-.54.76-.36 1.4-.86 1.92-1.5.54-.66.95-1.45 1.23-2.37.28-.94.42-1.98.42-3.12 0-1.14-.14-2.17-.42-3.09-.28-.94-.69-1.73-1.23-2.37a5.302 5.302 0 00-1.92-1.53c-.76-.36-1.61-.54-2.55-.54-.96 0-1.82.18-2.58.54-.76.36-1.41.87-1.95 1.53-.52.66-.92 1.45-1.2 2.37-.28.92-.42 1.95-.42 3.09zm16.23 0c0 1.78-.27 3.35-.81 4.71-.52 1.36-1.24 2.5-2.16 3.42-.9.9-1.96 1.58-3.18 2.04-1.22.46-2.52.69-3.9.69s-2.69-.23-3.93-.69a9.159 9.159 0 01-3.21-2.04c-.9-.92-1.62-2.06-2.16-3.42-.54-1.36-.81-2.93-.81-4.71 0-1.78.27-3.34.81-4.68.54-1.36 1.27-2.5 2.19-3.42.94-.92 2.02-1.61 3.24-2.07 1.22-.46 2.51-.69 3.87-.69 1.36 0 2.65.23 3.87.69 1.22.46 2.28 1.15 3.18 2.07.92.92 1.65 2.06 2.19 3.42.54 1.34.81 2.9.81 4.68zm13.867-7.53c-2.14 0-3.78.67-4.92 2.01-1.12 1.32-1.68 3.16-1.68 5.52 0 1.12.13 2.15.39 3.09.28.92.68 1.71 1.2 2.37.54.66 1.2 1.18 1.98 1.56.8.36 1.73.54 2.79.54.66 0 1.23-.02 1.71-.06.48-.06.86-.13 1.14-.21v-7.47h3.78v9.99c-.52.2-1.4.42-2.64.66-1.24.24-2.67.36-4.29.36-1.5 0-2.87-.24-4.11-.72a8.664 8.664 0 01-3.18-2.1c-.86-.92-1.53-2.05-2.01-3.39-.48-1.34-.72-2.88-.72-4.62 0-1.74.26-3.28.78-4.62.54-1.34 1.27-2.47 2.19-3.39.92-.94 2-1.65 3.24-2.13 1.24-.48 2.56-.72 3.96-.72.96 0 1.81.07 2.55.21.76.12 1.41.26 1.95.42.54.16.98.33 1.32.51.36.18.61.31.75.39l-1.14 3.09c-.6-.36-1.35-.66-2.25-.9-.88-.26-1.81-.39-2.79-.39zM62.636 28V7.21h13.35v3.21h-9.57v5.13h8.52v3.15h-8.52v6.09h10.29V28h-14.07zm29.909 0a46.15 46.15 0 00-2.19-3.9c-.88-1.42-1.8-2.79-2.76-4.11-.4.52-.84 1.14-1.32 1.86-.46.72-.93 1.46-1.41 2.22-.46.74-.89 1.46-1.29 2.16-.4.7-.72 1.29-.96 1.77h-4.29c.9-1.7 1.94-3.44 3.12-5.22 1.18-1.8 2.46-3.68 3.84-5.64l-6.66-9.93h4.5l4.59 7.11 4.53-7.11h4.32l-6.57 9.9c1.52 2.06 2.86 4.01 4.02 5.85 1.18 1.84 2.17 3.52 2.97 5.04h-4.44zM107 4h1v28h-1zm11.86 10V7.07h4.23v.83h-3.26v2.06h2.9v.81h-2.9v2.4h3.51V14h-4.48zm7.583.06a11.525 11.525 0 01-1.43-.09 3.718 3.718 0 01-.44-.08V7.17c.133-.033.28-.06.44-.08a11.703 11.703 0 011.42-.09c.4 0 .773.03 1.12.09.353.06.657.163.91.31.26.14.463.327.61.56.147.233.22.52.22.86 0 .38-.09.693-.27.94-.18.24-.42.42-.72.54.407.12.73.31.97.57.24.26.36.627.36 1.1 0 .693-.257 1.217-.77 1.57-.507.347-1.313.52-2.42.52zm-.91-3.29v2.44c.073.007.16.013.26.02.087.007.187.013.3.02h.41c.287 0 .557-.017.81-.05.26-.04.487-.107.68-.2a1.14 1.14 0 00.46-.39c.12-.167.18-.377.18-.63a1.14 1.14 0 00-.13-.57.947.947 0 00-.38-.38 1.745 1.745 0 00-.58-.2c-.227-.04-.48-.06-.76-.06h-1.25zm0-.78h1.02c.24 0 .467-.017.68-.05.213-.033.397-.093.55-.18a.939.939 0 00.51-.87c0-.2-.047-.367-.14-.5a.946.946 0 00-.39-.33 1.91 1.91 0 00-.57-.19c-.22-.04-.453-.06-.7-.06-.247 0-.44.003-.58.01a5.96 5.96 0 00-.38.03v2.14zM132.839 7c.973 0 1.72.187 2.24.56.526.367.79.917.79 1.65 0 .4-.074.743-.22 1.03-.14.28-.347.51-.62.69-.267.173-.594.3-.98.38-.387.08-.824.12-1.31.12h-.77V14h-.97V7.17c.273-.067.576-.11.91-.13.34-.027.65-.04.93-.04zm.08.85c-.414 0-.73.01-.95.03v2.72h.73c.333 0 .633-.02.9-.06.266-.047.49-.12.67-.22.186-.107.33-.25.43-.43.1-.18.15-.41.15-.69 0-.267-.054-.487-.16-.66a1.08 1.08 0 00-.42-.41 1.707 1.707 0 00-.61-.22c-.234-.04-.48-.06-.74-.06zm3.884 2.68c0-.593.086-1.117.26-1.57.18-.453.42-.83.72-1.13a3 3 0 011.06-.69 3.62 3.62 0 011.29-.23c.446 0 .866.077 1.26.23.4.153.75.383 1.05.69.3.3.536.677.71 1.13.18.453.27.977.27 1.57 0 .593-.09 1.117-.27 1.57a3.29 3.29 0 01-.71 1.14c-.3.3-.65.527-1.05.68a3.45 3.45 0 01-1.26.23c-.454 0-.884-.077-1.29-.23-.4-.153-.754-.38-1.06-.68-.3-.307-.54-.687-.72-1.14-.174-.453-.26-.977-.26-1.57zm1.02 0c0 .42.053.803.16 1.15.106.34.256.63.45.87.2.24.44.427.72.56.286.127.606.19.96.19.353 0 .67-.063.95-.19.28-.133.516-.32.71-.56.2-.24.353-.53.46-.87.106-.347.16-.73.16-1.15 0-.42-.054-.8-.16-1.14a2.514 2.514 0 00-.46-.88 1.917 1.917 0 00-.71-.55c-.28-.133-.597-.2-.95-.2a2.25 2.25 0 00-.96.2 2 2 0 00-.72.55c-.194.24-.344.533-.45.88-.107.34-.16.72-.16 1.14zm12.313-3.46V14h-.97V7.9h-3.33V14h-.97V7.07h5.27zm1.722 6.93V7.07h4.23v.83h-3.26v2.06h2.9v.81h-2.9v2.4h3.51V14h-4.48zm5.713 0V7.07h.95v5.13c.213-.353.473-.757.78-1.21a48.518 48.518 0 012.05-2.75c.36-.447.697-.837 1.01-1.17h.77V14h-.95V8.59c-.187.213-.39.46-.61.74-.22.28-.447.58-.68.9-.233.313-.47.64-.71.98-.233.34-.46.677-.68 1.01-.22.327-.427.643-.62.95-.187.307-.353.583-.5.83h-.81zm2.79-7.6c-.42 0-.763-.107-1.03-.32-.26-.213-.417-.51-.47-.89l.71-.19c.053.213.143.387.27.52.127.133.3.2.52.2.22 0 .393-.067.52-.2s.217-.307.27-.52l.7.19c-.053.38-.21.677-.47.89-.26.213-.6.32-1.02.32zm7.465 7.75c-.486 0-.93-.08-1.33-.24-.4-.16-.743-.393-1.03-.7a3.23 3.23 0 01-.67-1.13 4.837 4.837 0 01-.23-1.55c0-.58.087-1.093.26-1.54a3.4 3.4 0 01.72-1.14c.3-.307.65-.54 1.05-.7.4-.16.827-.24 1.28-.24.287 0 .544.02.77.06.234.04.434.087.6.14a2.755 2.755 0 01.64.28l-.28.8a1.525 1.525 0 00-.26-.13 4.968 4.968 0 00-.39-.14 2.853 2.853 0 00-.47-.11 2.584 2.584 0 00-.51-.05c-.366 0-.696.063-.99.19-.293.127-.543.31-.75.55-.206.24-.366.533-.48.88-.106.34-.16.723-.16 1.15 0 .413.047.79.14 1.13.1.34.247.633.44.88.194.24.434.427.72.56.294.133.634.2 1.02.2.447 0 .817-.047 1.11-.14.294-.093.514-.177.66-.25l.25.8c-.046.033-.13.077-.25.13-.12.047-.27.093-.45.14a5.601 5.601 0 01-1.41.17zm8.352-7.08c-.207.227-.44.48-.7.76a96.303 96.303 0 01-2.45 2.48c.286.2.59.447.91.74a15.723 15.723 0 011.8 1.96c.273.347.5.677.68.99h-1.14c-.2-.313-.43-.627-.69-.94-.26-.32-.537-.623-.83-.91-.287-.293-.58-.563-.88-.81a7.436 7.436 0 00-.86-.63V14h-.97V7.07h.97v3.06c.233-.22.49-.467.77-.74a77.754 77.754 0 001.6-1.64c.246-.26.453-.487.62-.68h1.17zm1.159 6.93V7.07h.95v5.13c.213-.353.473-.757.78-1.21a48.518 48.518 0 012.05-2.75c.36-.447.696-.837 1.01-1.17h.77V14h-.95V8.59c-.187.213-.39.46-.61.74-.22.28-.447.58-.68.9-.234.313-.47.64-.71.98-.234.34-.46.677-.68 1.01-.22.327-.427.643-.62.95-.187.307-.354.583-.5.83h-.81zm7.275 0V7.07h4.23v.83h-3.26v2.06h2.9v.81h-2.9v2.4h3.51V14h-4.48zm12.657-6.93v.84h-2.18V14h-.97V7.91h-2.18v-.84h5.33zm2.865-.07c.973 0 1.72.187 2.24.56.526.367.79.917.79 1.65 0 .4-.074.743-.22 1.03-.14.28-.347.51-.62.69-.267.173-.594.3-.98.38-.387.08-.824.12-1.31.12h-.77V14h-.97V7.17c.273-.067.576-.11.91-.13.34-.027.65-.04.93-.04zm.08.85c-.414 0-.73.01-.95.03v2.72h.73c.333 0 .633-.02.9-.06.266-.047.49-.12.67-.22.186-.107.33-.25.43-.43.1-.18.15-.41.15-.69 0-.267-.054-.487-.16-.66a1.08 1.08 0 00-.42-.41 1.707 1.707 0 00-.61-.22c-.234-.04-.48-.06-.74-.06zm7.244 4.03c-.134.307-.274.597-.42.87-.14.267-.31.5-.51.7-.194.2-.43.357-.71.47-.274.113-.614.17-1.02.17-.08 0-.164-.007-.25-.02a1.503 1.503 0 01-.25-.04 1.39 1.39 0 01-.21-.05.47.47 0 01-.13-.06l.17-.82c.086.033.19.067.31.1.126.033.256.05.39.05.2 0 .373-.023.52-.07.153-.053.29-.123.41-.21.12-.093.226-.203.32-.33.093-.133.183-.28.27-.44-.294-.473-.57-.943-.83-1.41a40.071 40.071 0 01-1.32-2.62c-.18-.4-.34-.767-.48-1.1h1.1c.22.58.5 1.227.84 1.94.346.713.73 1.46 1.15 2.24.266-.607.52-1.273.76-2 .246-.733.476-1.46.69-2.18h1.05c-.154.48-.307.933-.46 1.36-.154.42-.307.827-.46 1.22-.154.387-.307.767-.46 1.14-.154.367-.31.73-.47 1.09zm3.759-3.98v1.76h.86c.486 0 .92.04 1.3.12.386.08.713.21.98.39.266.173.47.4.61.68.14.273.21.61.21 1.01 0 .733-.267 1.287-.8 1.66-.534.367-1.287.55-2.26.55a11.486 11.486 0 01-1.43-.09 3.718 3.718 0 01-.44-.08V7.07h4.28v.83h-3.31zm.98 5.32c.26 0 .506-.02.74-.06.24-.04.45-.11.63-.21a1.24 1.24 0 00.43-.42c.106-.173.16-.393.16-.66 0-.28-.05-.51-.15-.69a1.064 1.064 0 00-.41-.43 1.847 1.847 0 00-.67-.22 5.074 5.074 0 00-.89-.07h-.82v2.73c.073.007.16.013.26.02.086.007.19.01.31.01h.41zm8.041-1.39c0-.28-.05-.513-.15-.7a1.09 1.09 0 00-.43-.44 1.935 1.935 0 00-.67-.22 4.642 4.642 0 00-.84-.07h-.37c-.127 0-.25.007-.37.02v2.77c.227.02.397.03.51.03h.4c.247 0 .487-.02.72-.06a1.7 1.7 0 00.61-.22 1.24 1.24 0 00.43-.42c.107-.18.16-.41.16-.69zm1.02 0c0 .373-.07.7-.21.98-.14.28-.34.513-.6.7a2.75 2.75 0 01-.95.42c-.373.093-.793.14-1.26.14-.28 0-.58-.013-.9-.04-.32-.02-.62-.063-.9-.13V7.07h.97v2.52c.12-.013.247-.02.38-.02.14-.007.27-.01.39-.01 2.053 0 3.08.757 3.08 2.27zm1.05-4.76h.97V14h-.97V7.07zM118.86 28v-6.93h.95v5.13c.213-.353.473-.757.78-1.21a48.518 48.518 0 012.05-2.75c.36-.447.697-.837 1.01-1.17h.77V28h-.95v-5.41c-.187.213-.39.46-.61.74-.22.28-.447.58-.68.9-.233.313-.47.64-.71.98-.233.34-.46.677-.68 1.01-.22.327-.427.643-.62.95-.187.307-.353.583-.5.83h-.81zm12.7-.96a21.39 21.39 0 00-.27-.61c-.107-.247-.223-.513-.35-.8-.127-.287-.263-.58-.41-.88-.14-.307-.273-.593-.4-.86a15.75 15.75 0 00-.36-.73 8.706 8.706 0 00-.26-.49c-.073.787-.133 1.64-.18 2.56-.047.913-.087 1.837-.12 2.77h-.95c.027-.6.057-1.203.09-1.81.033-.613.07-1.213.11-1.8.047-.593.093-1.17.14-1.73.053-.56.11-1.09.17-1.59h.85c.18.293.373.64.58 1.04.207.4.413.82.62 1.26.207.433.407.87.6 1.31l.53 1.19.53-1.19c.193-.44.393-.877.6-1.31.207-.44.413-.86.62-1.26.207-.4.4-.747.58-1.04h.85c.227 2.233.397 4.543.51 6.93h-.95c-.033-.933-.073-1.857-.12-2.77a62.131 62.131 0 00-.18-2.56c-.067.113-.157.277-.27.49-.107.213-.223.457-.35.73l-.41.86c-.14.3-.273.593-.4.88-.127.287-.247.553-.36.8-.107.247-.193.45-.26.61h-.78zm5.601.96v-6.93h4.23v.83h-3.26v2.06h2.9v.81h-2.9v2.4h3.51V28h-4.48zm10.343-6.93v.84h-2.18V28h-.97v-6.09h-2.18v-.84h5.33zm5.009 6.93c-.113-.3-.22-.593-.32-.88-.1-.293-.203-.59-.31-.89h-3.14l-.63 1.77h-1.01c.267-.733.517-1.41.75-2.03.234-.627.46-1.22.68-1.78.227-.56.45-1.093.67-1.6.22-.513.45-1.02.69-1.52h.89a49.11 49.11 0 011.35 3.12c.227.56.457 1.153.69 1.78.234.62.484 1.297.75 2.03h-1.06zm-.91-2.57c-.213-.58-.426-1.14-.64-1.68a25.827 25.827 0 00-.65-1.57c-.233.5-.456 1.023-.67 1.57-.206.54-.413 1.1-.62 1.68h2.58zm5.525-3.53c-.013.373-.026.737-.04 1.09-.013.347-.033.687-.06 1.02a10.6 10.6 0 01-.12.96 6.95 6.95 0 01-.22.92c-.093.3-.21.583-.35.85-.133.26-.303.49-.51.69-.2.193-.44.35-.72.47-.273.12-.596.187-.97.2l-.11-.84c.467-.053.827-.2 1.08-.44.26-.24.474-.607.64-1.1.187-.56.304-1.233.35-2.02.054-.793.08-1.67.08-2.63h3.93V28h-.97v-6.1h-2.01zm7.071 0l-.04 1.09a27.26 27.26 0 01-.06 1.02c-.027.327-.067.647-.12.96a7.29 7.29 0 01-.22.92c-.094.3-.21.583-.35.85a2.64 2.64 0 01-.51.69c-.2.193-.44.35-.72.47-.274.12-.597.187-.97.2l-.11-.84c.466-.053.826-.2 1.08-.44.26-.24.473-.607.64-1.1.186-.56.303-1.233.35-2.02.053-.793.08-1.67.08-2.63h3.93V28h-.97v-6.1h-2.01zm4.42 2.63c0-.593.087-1.117.26-1.57.18-.453.42-.83.72-1.13a3 3 0 011.06-.69 3.63 3.63 0 011.29-.23c.447 0 .867.077 1.26.23.4.153.75.383 1.05.69.3.3.537.677.71 1.13.18.453.27.977.27 1.57 0 .593-.09 1.117-.27 1.57-.173.453-.41.833-.71 1.14-.3.3-.65.527-1.05.68-.393.153-.813.23-1.26.23a3.63 3.63 0 01-1.29-.23c-.4-.153-.753-.38-1.06-.68-.3-.307-.54-.687-.72-1.14-.173-.453-.26-.977-.26-1.57zm1.02 0c0 .42.053.803.16 1.15.107.34.257.63.45.87.2.24.44.427.72.56.287.127.607.19.96.19s.67-.063.95-.19c.28-.133.517-.32.71-.56.2-.24.353-.53.46-.87.107-.347.16-.73.16-1.15 0-.42-.053-.8-.16-1.14a2.514 2.514 0 00-.46-.88 1.909 1.909 0 00-.71-.55c-.28-.133-.597-.2-.95-.2s-.673.067-.96.2a2 2 0 00-.72.55 2.62 2.62 0 00-.45.88c-.107.34-.16.72-.16 1.14zm12.313-3.46V28h-.97v-6.1h-3.33V28h-.97v-6.93h5.27zm3.562-.07c.974 0 1.72.187 2.24.56.527.367.79.917.79 1.65 0 .4-.073.743-.22 1.03-.14.28-.346.51-.62.69-.266.173-.593.3-.98.38-.386.08-.823.12-1.31.12h-.77V28h-.97v-6.83c.274-.067.577-.11.91-.13.34-.027.65-.04.93-.04zm.08.85c-.413 0-.73.01-.95.03v2.72h.73c.334 0 .634-.02.9-.06.267-.047.49-.12.67-.22.187-.107.33-.25.43-.43.1-.18.15-.41.15-.69 0-.267-.053-.487-.16-.66a1.08 1.08 0 00-.42-.41 1.693 1.693 0 00-.61-.22c-.233-.04-.48-.06-.74-.06zm3.884 2.68c0-.593.087-1.117.26-1.57.18-.453.42-.83.72-1.13a3 3 0 011.06-.69 3.63 3.63 0 011.29-.23c.447 0 .867.077 1.26.23.4.153.75.383 1.05.69.3.3.537.677.71 1.13.18.453.27.977.27 1.57 0 .593-.09 1.117-.27 1.57-.173.453-.41.833-.71 1.14-.3.3-.65.527-1.05.68-.393.153-.813.23-1.26.23a3.63 3.63 0 01-1.29-.23c-.4-.153-.753-.38-1.06-.68-.3-.307-.54-.687-.72-1.14-.173-.453-.26-.977-.26-1.57zm1.02 0c0 .42.054.803.16 1.15.107.34.257.63.45.87.2.24.44.427.72.56.287.127.607.19.96.19.354 0 .67-.063.95-.19.28-.133.517-.32.71-.56.2-.24.354-.53.46-.87.107-.347.16-.73.16-1.15 0-.42-.053-.8-.16-1.14a2.497 2.497 0 00-.46-.88 1.909 1.909 0 00-.71-.55c-.28-.133-.596-.2-.95-.2-.353 0-.673.067-.96.2a2 2 0 00-.72.55 2.62 2.62 0 00-.45.88c-.106.34-.16.72-.16 1.14zm12.174-3.46c-.207.227-.44.48-.7.76a96.303 96.303 0 01-2.45 2.48c.286.2.59.447.91.74a15.723 15.723 0 011.8 1.96c.273.347.5.677.68.99h-1.14c-.2-.313-.43-.627-.69-.94-.26-.32-.537-.623-.83-.91-.287-.293-.58-.563-.88-.81a7.436 7.436 0 00-.86-.63V28h-.97v-6.93h.97v3.06c.233-.22.49-.467.77-.74a78.062 78.062 0 001.6-1.64c.246-.26.453-.487.62-.68h1.17zm6.131 6.93c-.114-.3-.22-.593-.32-.88-.1-.293-.204-.59-.31-.89h-3.14l-.63 1.77h-1.01c.266-.733.516-1.41.75-2.03.233-.627.46-1.22.68-1.78a66.6 66.6 0 01.67-1.6c.22-.513.45-1.02.69-1.52h.89a49.11 49.11 0 011.35 3.12c.226.56.456 1.153.69 1.78.233.62.483 1.297.75 2.03h-1.06zm-.91-2.57c-.214-.58-.427-1.14-.64-1.68a27.174 27.174 0 00-.65-1.57c-.234.5-.457 1.023-.67 1.57-.207.54-.414 1.1-.62 1.68h2.58zm6.896-4.36v.84h-2.18V28h-.97v-6.09h-2.18v-.84h5.33z" fill="#002946"/></svg>