<svg width="16" height="16" fill="none" xmlns="http://www.w3.org/2000/svg"><g clip-path="url(#clip0_93_8)"><path d="M7.646 15.873c.206.17.503.17.709 0 3.319-2.757 4.798-5.292 5.442-6.814a6.441 6.441 0 00.474-1.467A6.39 6.39 0 007.77.004c-3.18.11-5.819 2.59-6.126 5.755a6.434 6.434 0 00.128 2.032c.098.441.245.866.431 1.268.644 1.519 2.12 4.057 5.442 6.814zM4.115 6.458a3.885 3.885 0 017.768 0 3.884 3.884 0 01-7.768 0z" fill="#002946"/></g><defs><clipPath id="clip0_93_8"><path fill="#fff" d="M0 0h16v16H0z"/></clipPath></defs></svg>