<svg width="233" height="34" viewBox="0 0 233 34" fill="none" xmlns="http://www.w3.org/2000/svg">
<path d="M2.49 28V7.21H15.63V10.42H6.27V15.73H14.58V18.94H6.27V28H2.49ZM21.7812 17.59C21.7812 18.73 21.9212 19.77 22.2012 20.71C22.4812 21.63 22.8812 22.42 23.4012 23.08C23.9412 23.72 24.5912 24.22 25.3512 24.58C26.1112 24.94 26.9712 25.12 27.9312 25.12C28.8712 25.12 29.7212 24.94 30.4812 24.58C31.2412 24.22 31.8812 23.72 32.4012 23.08C32.9412 22.42 33.3512 21.63 33.6312 20.71C33.9112 19.77 34.0512 18.73 34.0512 17.59C34.0512 16.45 33.9112 15.42 33.6312 14.5C33.3512 13.56 32.9412 12.77 32.4012 12.13C31.8812 11.47 31.2412 10.96 30.4812 10.6C29.7212 10.24 28.8712 10.06 27.9312 10.06C26.9712 10.06 26.1112 10.24 25.3512 10.6C24.5912 10.96 23.9412 11.47 23.4012 12.13C22.8812 12.79 22.4812 13.58 22.2012 14.5C21.9212 15.42 21.7812 16.45 21.7812 17.59ZM38.0112 17.59C38.0112 19.37 37.7412 20.94 37.2012 22.3C36.6812 23.66 35.9612 24.8 35.0412 25.72C34.1412 26.62 33.0812 27.3 31.8612 27.76C30.6412 28.22 29.3412 28.45 27.9612 28.45C26.5812 28.45 25.2712 28.22 24.0312 27.76C22.8112 27.3 21.7412 26.62 20.8212 25.72C19.9212 24.8 19.2012 23.66 18.6612 22.3C18.1212 20.94 17.8512 19.37 17.8512 17.59C17.8512 15.81 18.1212 14.25 18.6612 12.91C19.2012 11.55 19.9312 10.41 20.8512 9.49C21.7912 8.57 22.8712 7.88 24.0912 7.42C25.3112 6.96 26.6012 6.73 27.9612 6.73C29.3212 6.73 30.6112 6.96 31.8312 7.42C33.0512 7.88 34.1112 8.57 35.0112 9.49C35.9312 10.41 36.6612 11.55 37.2012 12.91C37.7412 14.25 38.0112 15.81 38.0112 17.59ZM51.878 10.06C49.738 10.06 48.098 10.73 46.958 12.07C45.838 13.39 45.278 15.23 45.278 17.59C45.278 18.71 45.408 19.74 45.668 20.68C45.948 21.6 46.348 22.39 46.868 23.05C47.408 23.71 48.068 24.23 48.848 24.61C49.648 24.97 50.578 25.15 51.638 25.15C52.298 25.15 52.868 25.13 53.348 25.09C53.828 25.03 54.208 24.96 54.488 24.88V17.41H58.268V27.4C57.748 27.6 56.868 27.82 55.628 28.06C54.388 28.3 52.958 28.42 51.338 28.42C49.838 28.42 48.468 28.18 47.228 27.7C45.988 27.22 44.928 26.52 44.048 25.6C43.188 24.68 42.518 23.55 42.038 22.21C41.558 20.87 41.318 19.33 41.318 17.59C41.318 15.85 41.578 14.31 42.098 12.97C42.638 11.63 43.368 10.5 44.288 9.58C45.208 8.64 46.288 7.93 47.528 7.45C48.768 6.97 50.088 6.73 51.488 6.73C52.448 6.73 53.298 6.8 54.038 6.94C54.798 7.06 55.448 7.2 55.988 7.36C56.528 7.52 56.968 7.69 57.308 7.87C57.668 8.05 57.918 8.18 58.058 8.26L56.918 11.35C56.318 10.99 55.568 10.69 54.668 10.45C53.788 10.19 52.858 10.06 51.878 10.06ZM62.6365 28V7.21H75.9865V10.42H66.4165V15.55H74.9365V18.7H66.4165V24.79H76.7065V28H62.6365ZM92.5446 28C91.9646 26.82 91.2346 25.52 90.3546 24.1C89.4746 22.68 88.5546 21.31 87.5946 19.99C87.1946 20.51 86.7546 21.13 86.2746 21.85C85.8146 22.57 85.3446 23.31 84.8646 24.07C84.4046 24.81 83.9746 25.53 83.5746 26.23C83.1746 26.93 82.8546 27.52 82.6146 28H78.3246C79.2246 26.3 80.2646 24.56 81.4446 22.78C82.6246 20.98 83.9046 19.1 85.2846 17.14L78.6246 7.21H83.1246L87.7146 14.32L92.2446 7.21H96.5646L89.9946 17.11C91.5146 19.17 92.8546 21.12 94.0146 22.96C95.1946 24.8 96.1846 26.48 96.9846 28H92.5446Z" fill="#002946"/>
<rect x="107" y="4" width="1" height="28" fill="#002946"/>
<path d="M118.86 14V7.07H123.09V7.9H119.83V9.96H122.73V10.77H119.83V13.17H123.34V14H118.86ZM126.443 14.06C126.303 14.06 126.15 14.0567 125.983 14.05C125.823 14.0433 125.66 14.0333 125.493 14.02C125.333 14.0067 125.173 13.99 125.013 13.97C124.853 13.95 124.706 13.9233 124.573 13.89V7.17C124.706 7.13667 124.853 7.11 125.013 7.09C125.173 7.07 125.333 7.05333 125.493 7.04C125.66 7.02667 125.823 7.01667 125.983 7.01C126.143 7.00333 126.293 7 126.433 7C126.833 7 127.206 7.03 127.553 7.09C127.906 7.15 128.21 7.25333 128.463 7.4C128.723 7.54 128.926 7.72667 129.073 7.96C129.22 8.19333 129.293 8.48 129.293 8.82C129.293 9.2 129.203 9.51333 129.023 9.76C128.843 10 128.603 10.18 128.303 10.3C128.71 10.42 129.033 10.61 129.273 10.87C129.513 11.13 129.633 11.4967 129.633 11.97C129.633 12.6633 129.376 13.1867 128.863 13.54C128.356 13.8867 127.55 14.06 126.443 14.06ZM125.533 10.77V13.21C125.606 13.2167 125.693 13.2233 125.793 13.23C125.88 13.2367 125.98 13.2433 126.093 13.25C126.213 13.25 126.35 13.25 126.503 13.25C126.79 13.25 127.06 13.2333 127.313 13.2C127.573 13.16 127.8 13.0933 127.993 13C128.186 12.9067 128.34 12.7767 128.453 12.61C128.573 12.4433 128.633 12.2333 128.633 11.98C128.633 11.7533 128.59 11.5633 128.503 11.41C128.416 11.25 128.29 11.1233 128.123 11.03C127.963 10.9367 127.77 10.87 127.543 10.83C127.316 10.79 127.063 10.77 126.783 10.77H125.533ZM125.533 9.99H126.553C126.793 9.99 127.02 9.97333 127.233 9.94C127.446 9.90667 127.63 9.84667 127.783 9.76C127.943 9.67333 128.066 9.56 128.153 9.42C128.246 9.28 128.293 9.10333 128.293 8.89C128.293 8.69 128.246 8.52333 128.153 8.39C128.06 8.25 127.93 8.14 127.763 8.06C127.603 7.97333 127.413 7.91 127.193 7.87C126.973 7.83 126.74 7.81 126.493 7.81C126.246 7.81 126.053 7.81333 125.913 7.82C125.773 7.82667 125.646 7.83667 125.533 7.85V9.99ZM132.839 7C133.812 7 134.559 7.18667 135.079 7.56C135.605 7.92667 135.869 8.47667 135.869 9.21C135.869 9.61 135.795 9.95333 135.649 10.24C135.509 10.52 135.302 10.75 135.029 10.93C134.762 11.1033 134.435 11.23 134.049 11.31C133.662 11.39 133.225 11.43 132.739 11.43H131.969V14H130.999V7.17C131.272 7.10333 131.575 7.06 131.909 7.04C132.249 7.01333 132.559 7 132.839 7ZM132.919 7.85C132.505 7.85 132.189 7.86 131.969 7.88V10.6H132.699C133.032 10.6 133.332 10.58 133.599 10.54C133.865 10.4933 134.089 10.42 134.269 10.32C134.455 10.2133 134.599 10.07 134.699 9.89C134.799 9.71 134.849 9.48 134.849 9.2C134.849 8.93333 134.795 8.71333 134.689 8.54C134.589 8.36667 134.449 8.23 134.269 8.13C134.095 8.02333 133.892 7.95 133.659 7.91C133.425 7.87 133.179 7.85 132.919 7.85ZM136.803 10.53C136.803 9.93667 136.889 9.41333 137.063 8.96C137.243 8.50667 137.483 8.13 137.783 7.83C138.089 7.52333 138.443 7.29333 138.843 7.14C139.249 6.98667 139.679 6.91 140.133 6.91C140.579 6.91 140.999 6.98667 141.393 7.14C141.793 7.29333 142.143 7.52333 142.443 7.83C142.743 8.13 142.979 8.50667 143.153 8.96C143.333 9.41333 143.423 9.93667 143.423 10.53C143.423 11.1233 143.333 11.6467 143.153 12.1C142.979 12.5533 142.743 12.9333 142.443 13.24C142.143 13.54 141.793 13.7667 141.393 13.92C140.999 14.0733 140.579 14.15 140.133 14.15C139.679 14.15 139.249 14.0733 138.843 13.92C138.443 13.7667 138.089 13.54 137.783 13.24C137.483 12.9333 137.243 12.5533 137.063 12.1C136.889 11.6467 136.803 11.1233 136.803 10.53ZM137.823 10.53C137.823 10.95 137.876 11.3333 137.983 11.68C138.089 12.02 138.239 12.31 138.433 12.55C138.633 12.79 138.873 12.9767 139.153 13.11C139.439 13.2367 139.759 13.3 140.113 13.3C140.466 13.3 140.783 13.2367 141.063 13.11C141.343 12.9767 141.579 12.79 141.773 12.55C141.973 12.31 142.126 12.02 142.233 11.68C142.339 11.3333 142.393 10.95 142.393 10.53C142.393 10.11 142.339 9.73 142.233 9.39C142.126 9.04333 141.973 8.75 141.773 8.51C141.579 8.27 141.343 8.08667 141.063 7.96C140.783 7.82667 140.466 7.76 140.113 7.76C139.759 7.76 139.439 7.82667 139.153 7.96C138.873 8.08667 138.633 8.27 138.433 8.51C138.239 8.75 138.089 9.04333 137.983 9.39C137.876 9.73 137.823 10.11 137.823 10.53ZM150.136 7.07V14H149.166V7.9H145.836V14H144.866V7.07H150.136ZM151.858 14V7.07H156.088V7.9H152.828V9.96H155.728V10.77H152.828V13.17H156.338V14H151.858ZM157.571 14V7.07H158.521V12.2C158.734 11.8467 158.994 11.4433 159.301 10.99C159.614 10.5367 159.944 10.0767 160.291 9.61C160.644 9.13667 160.998 8.68 161.351 8.24C161.711 7.79333 162.048 7.40333 162.361 7.07H163.131V14H162.181V8.59C161.994 8.80333 161.791 9.05 161.571 9.33C161.351 9.61 161.124 9.91 160.891 10.23C160.658 10.5433 160.421 10.87 160.181 11.21C159.948 11.55 159.721 11.8867 159.501 12.22C159.281 12.5467 159.074 12.8633 158.881 13.17C158.694 13.4767 158.528 13.7533 158.381 14H157.571ZM160.361 6.4C159.941 6.4 159.598 6.29333 159.331 6.08C159.071 5.86667 158.914 5.57 158.861 5.19L159.571 5C159.624 5.21333 159.714 5.38667 159.841 5.52C159.968 5.65333 160.141 5.72 160.361 5.72C160.581 5.72 160.754 5.65333 160.881 5.52C161.008 5.38667 161.098 5.21333 161.151 5L161.851 5.19C161.798 5.57 161.641 5.86667 161.381 6.08C161.121 6.29333 160.781 6.4 160.361 6.4ZM167.826 14.15C167.34 14.15 166.896 14.07 166.496 13.91C166.096 13.75 165.753 13.5167 165.466 13.21C165.18 12.9033 164.956 12.5267 164.796 12.08C164.643 11.6267 164.566 11.11 164.566 10.53C164.566 9.95 164.653 9.43667 164.826 8.99C165.006 8.53667 165.246 8.15667 165.546 7.85C165.846 7.54333 166.196 7.31 166.596 7.15C166.996 6.99 167.423 6.91 167.876 6.91C168.163 6.91 168.42 6.93 168.646 6.97C168.88 7.01 169.08 7.05667 169.246 7.11C169.42 7.16333 169.56 7.21667 169.666 7.27C169.773 7.32333 169.846 7.36333 169.886 7.39L169.606 8.19C169.546 8.15 169.46 8.10667 169.346 8.06C169.233 8.01333 169.103 7.96667 168.956 7.92C168.816 7.87333 168.66 7.83667 168.486 7.81C168.32 7.77667 168.15 7.76 167.976 7.76C167.61 7.76 167.28 7.82333 166.986 7.95C166.693 8.07667 166.443 8.26 166.236 8.5C166.03 8.74 165.87 9.03333 165.756 9.38C165.65 9.72 165.596 10.1033 165.596 10.53C165.596 10.9433 165.643 11.32 165.736 11.66C165.836 12 165.983 12.2933 166.176 12.54C166.37 12.78 166.61 12.9667 166.896 13.1C167.19 13.2333 167.53 13.3 167.916 13.3C168.363 13.3 168.733 13.2533 169.026 13.16C169.32 13.0667 169.54 12.9833 169.686 12.91L169.936 13.71C169.89 13.7433 169.806 13.7867 169.686 13.84C169.566 13.8867 169.416 13.9333 169.236 13.98C169.056 14.0267 168.846 14.0667 168.606 14.1C168.366 14.1333 168.106 14.15 167.826 14.15ZM176.178 7.07C175.971 7.29667 175.738 7.55 175.478 7.83C175.218 8.10333 174.944 8.38667 174.658 8.68C174.378 8.96667 174.098 9.25 173.818 9.53C173.538 9.81 173.274 10.07 173.028 10.31C173.314 10.51 173.618 10.7567 173.938 11.05C174.258 11.3433 174.571 11.6567 174.878 11.99C175.184 12.3233 175.471 12.6633 175.738 13.01C176.011 13.3567 176.238 13.6867 176.418 14H175.278C175.078 13.6867 174.848 13.3733 174.588 13.06C174.328 12.74 174.051 12.4367 173.758 12.15C173.471 11.8567 173.178 11.5867 172.878 11.34C172.584 11.0933 172.298 10.8833 172.018 10.71V14H171.048V7.07H172.018V10.13C172.251 9.91 172.508 9.66333 172.788 9.39C173.068 9.11 173.344 8.83 173.618 8.55C173.891 8.27 174.148 8.00333 174.388 7.75C174.634 7.49 174.841 7.26333 175.008 7.07H176.178ZM177.337 14V7.07H178.287V12.2C178.5 11.8467 178.76 11.4433 179.067 10.99C179.38 10.5367 179.71 10.0767 180.057 9.61C180.41 9.13667 180.763 8.68 181.117 8.24C181.477 7.79333 181.813 7.40333 182.127 7.07H182.897V14H181.947V8.59C181.76 8.80333 181.557 9.05 181.337 9.33C181.117 9.61 180.89 9.91 180.657 10.23C180.423 10.5433 180.187 10.87 179.947 11.21C179.713 11.55 179.487 11.8867 179.267 12.22C179.047 12.5467 178.84 12.8633 178.647 13.17C178.46 13.4767 178.293 13.7533 178.147 14H177.337ZM184.612 14V7.07H188.842V7.9H185.582V9.96H188.482V10.77H185.582V13.17H189.092V14H184.612ZM197.269 7.07V7.91H195.089V14H194.119V7.91H191.939V7.07H197.269ZM200.134 7C201.107 7 201.854 7.18667 202.374 7.56C202.9 7.92667 203.164 8.47667 203.164 9.21C203.164 9.61 203.09 9.95333 202.944 10.24C202.804 10.52 202.597 10.75 202.324 10.93C202.057 11.1033 201.73 11.23 201.344 11.31C200.957 11.39 200.52 11.43 200.034 11.43H199.264V14H198.294V7.17C198.567 7.10333 198.87 7.06 199.204 7.04C199.544 7.01333 199.854 7 200.134 7ZM200.214 7.85C199.8 7.85 199.484 7.86 199.264 7.88V10.6H199.994C200.327 10.6 200.627 10.58 200.894 10.54C201.16 10.4933 201.384 10.42 201.564 10.32C201.75 10.2133 201.894 10.07 201.994 9.89C202.094 9.71 202.144 9.48 202.144 9.2C202.144 8.93333 202.09 8.71333 201.984 8.54C201.884 8.36667 201.744 8.23 201.564 8.13C201.39 8.02333 201.187 7.95 200.954 7.91C200.72 7.87 200.474 7.85 200.214 7.85ZM207.458 11.88C207.324 12.1867 207.184 12.4767 207.038 12.75C206.898 13.0167 206.728 13.25 206.528 13.45C206.334 13.65 206.098 13.8067 205.818 13.92C205.544 14.0333 205.204 14.09 204.798 14.09C204.718 14.09 204.634 14.0833 204.548 14.07C204.461 14.0633 204.378 14.05 204.298 14.03C204.218 14.0167 204.148 14 204.088 13.98C204.028 13.96 203.984 13.94 203.958 13.92L204.128 13.1C204.214 13.1333 204.318 13.1667 204.438 13.2C204.564 13.2333 204.694 13.25 204.828 13.25C205.028 13.25 205.201 13.2267 205.348 13.18C205.501 13.1267 205.638 13.0567 205.758 12.97C205.878 12.8767 205.984 12.7667 206.078 12.64C206.171 12.5067 206.261 12.36 206.348 12.2C206.054 11.7267 205.778 11.2567 205.518 10.79C205.258 10.3167 205.018 9.86 204.798 9.42C204.578 8.98 204.378 8.56333 204.198 8.17C204.018 7.77 203.858 7.40333 203.718 7.07H204.818C205.038 7.65 205.318 8.29667 205.658 9.01C206.004 9.72333 206.388 10.47 206.808 11.25C207.074 10.6433 207.328 9.97667 207.568 9.25C207.814 8.51667 208.044 7.79 208.258 7.07H209.308C209.154 7.55 209.001 8.00333 208.848 8.43C208.694 8.85 208.541 9.25667 208.388 9.65C208.234 10.0367 208.081 10.4167 207.928 10.79C207.774 11.1567 207.618 11.52 207.458 11.88ZM211.217 7.9V9.66H212.077C212.563 9.66 212.997 9.7 213.377 9.78C213.763 9.86 214.09 9.99 214.357 10.17C214.623 10.3433 214.827 10.57 214.967 10.85C215.107 11.1233 215.177 11.46 215.177 11.86C215.177 12.5933 214.91 13.1467 214.377 13.52C213.843 13.8867 213.09 14.07 212.117 14.07C211.977 14.07 211.823 14.0667 211.657 14.06C211.497 14.0533 211.333 14.0433 211.167 14.03C211.007 14.0167 210.847 14 210.687 13.98C210.527 13.96 210.38 13.9333 210.247 13.9V7.07H214.527V7.9H211.217ZM212.197 13.22C212.457 13.22 212.703 13.2 212.937 13.16C213.177 13.12 213.387 13.05 213.567 12.95C213.747 12.8433 213.89 12.7033 213.997 12.53C214.103 12.3567 214.157 12.1367 214.157 11.87C214.157 11.59 214.107 11.36 214.007 11.18C213.913 11 213.777 10.8567 213.597 10.75C213.417 10.6433 213.193 10.57 212.927 10.53C212.667 10.4833 212.37 10.46 212.037 10.46H211.217V13.19C211.29 13.1967 211.377 13.2033 211.477 13.21C211.563 13.2167 211.667 13.22 211.787 13.22C211.907 13.22 212.043 13.22 212.197 13.22ZM220.238 11.83C220.238 11.55 220.188 11.3167 220.088 11.13C219.988 10.9433 219.845 10.7967 219.658 10.69C219.471 10.5833 219.248 10.51 218.988 10.47C218.735 10.4233 218.455 10.4 218.148 10.4C218.035 10.4 217.911 10.4 217.778 10.4C217.651 10.4 217.528 10.4067 217.408 10.42V13.19C217.635 13.21 217.805 13.22 217.918 13.22C218.031 13.22 218.165 13.22 218.318 13.22C218.565 13.22 218.805 13.2 219.038 13.16C219.271 13.12 219.475 13.0467 219.648 12.94C219.828 12.8333 219.971 12.6933 220.078 12.52C220.185 12.34 220.238 12.11 220.238 11.83ZM221.258 11.83C221.258 12.2033 221.188 12.53 221.048 12.81C220.908 13.09 220.708 13.3233 220.448 13.51C220.188 13.6967 219.871 13.8367 219.498 13.93C219.125 14.0233 218.705 14.07 218.238 14.07C217.958 14.07 217.658 14.0567 217.338 14.03C217.018 14.01 216.718 13.9667 216.438 13.9V7.07H217.408V9.59C217.528 9.57667 217.655 9.57 217.788 9.57C217.928 9.56333 218.058 9.56 218.178 9.56C220.231 9.56 221.258 10.3167 221.258 11.83ZM222.308 7.07H223.278V14H222.308V7.07ZM118.86 28V21.07H119.81V26.2C120.023 25.8467 120.283 25.4433 120.59 24.99C120.903 24.5367 121.233 24.0767 121.58 23.61C121.933 23.1367 122.287 22.68 122.64 22.24C123 21.7933 123.337 21.4033 123.65 21.07H124.42V28H123.47V22.59C123.283 22.8033 123.08 23.05 122.86 23.33C122.64 23.61 122.413 23.91 122.18 24.23C121.947 24.5433 121.71 24.87 121.47 25.21C121.237 25.55 121.01 25.8867 120.79 26.22C120.57 26.5467 120.363 26.8633 120.17 27.17C119.983 27.4767 119.817 27.7533 119.67 28H118.86ZM131.56 27.04C131.493 26.88 131.403 26.6767 131.29 26.43C131.183 26.1833 131.067 25.9167 130.94 25.63C130.813 25.3433 130.677 25.05 130.53 24.75C130.39 24.4433 130.257 24.1567 130.13 23.89C130.003 23.6167 129.883 23.3733 129.77 23.16C129.663 22.9467 129.577 22.7833 129.51 22.67C129.437 23.4567 129.377 24.31 129.33 25.23C129.283 26.1433 129.243 27.0667 129.21 28H128.26C128.287 27.4 128.317 26.7967 128.35 26.19C128.383 25.5767 128.42 24.9767 128.46 24.39C128.507 23.7967 128.553 23.22 128.6 22.66C128.653 22.1 128.71 21.57 128.77 21.07H129.62C129.8 21.3633 129.993 21.71 130.2 22.11C130.407 22.51 130.613 22.93 130.82 23.37C131.027 23.8033 131.227 24.24 131.42 24.68C131.613 25.1133 131.79 25.51 131.95 25.87C132.11 25.51 132.287 25.1133 132.48 24.68C132.673 24.24 132.873 23.8033 133.08 23.37C133.287 22.93 133.493 22.51 133.7 22.11C133.907 21.71 134.1 21.3633 134.28 21.07H135.13C135.357 23.3033 135.527 25.6133 135.64 28H134.69C134.657 27.0667 134.617 26.1433 134.57 25.23C134.523 24.31 134.463 23.4567 134.39 22.67C134.323 22.7833 134.233 22.9467 134.12 23.16C134.013 23.3733 133.897 23.6167 133.77 23.89C133.643 24.1567 133.507 24.4433 133.36 24.75C133.22 25.05 133.087 25.3433 132.96 25.63C132.833 25.9167 132.713 26.1833 132.6 26.43C132.493 26.6767 132.407 26.88 132.34 27.04H131.56ZM137.161 28V21.07H141.391V21.9H138.131V23.96H141.031V24.77H138.131V27.17H141.641V28H137.161ZM147.504 21.07V21.91H145.324V28H144.354V21.91H142.174V21.07H147.504ZM152.513 28C152.4 27.7 152.293 27.4067 152.193 27.12C152.093 26.8267 151.99 26.53 151.883 26.23H148.743L148.113 28H147.103C147.37 27.2667 147.62 26.59 147.853 25.97C148.087 25.3433 148.313 24.75 148.533 24.19C148.76 23.63 148.983 23.0967 149.203 22.59C149.423 22.0767 149.653 21.57 149.893 21.07H150.783C151.023 21.57 151.253 22.0767 151.473 22.59C151.693 23.0967 151.913 23.63 152.133 24.19C152.36 24.75 152.59 25.3433 152.823 25.97C153.057 26.59 153.307 27.2667 153.573 28H152.513ZM151.603 25.43C151.39 24.85 151.177 24.29 150.963 23.75C150.757 23.2033 150.54 22.68 150.313 22.18C150.08 22.68 149.857 23.2033 149.643 23.75C149.437 24.29 149.23 24.85 149.023 25.43H151.603ZM157.128 21.9C157.115 22.2733 157.102 22.6367 157.088 22.99C157.075 23.3367 157.055 23.6767 157.028 24.01C157.002 24.3367 156.962 24.6567 156.908 24.97C156.855 25.2833 156.782 25.59 156.688 25.89C156.595 26.19 156.478 26.4733 156.338 26.74C156.205 27 156.035 27.23 155.828 27.43C155.628 27.6233 155.388 27.78 155.108 27.9C154.835 28.02 154.512 28.0867 154.138 28.1L154.028 27.26C154.495 27.2067 154.855 27.06 155.108 26.82C155.368 26.58 155.582 26.2133 155.748 25.72C155.935 25.16 156.052 24.4867 156.098 23.7C156.152 22.9067 156.178 22.03 156.178 21.07H160.108V28H159.138V21.9H157.128ZM164.199 21.9C164.185 22.2733 164.172 22.6367 164.159 22.99C164.145 23.3367 164.125 23.6767 164.099 24.01C164.072 24.3367 164.032 24.6567 163.979 24.97C163.925 25.2833 163.852 25.59 163.759 25.89C163.665 26.19 163.549 26.4733 163.409 26.74C163.275 27 163.105 27.23 162.899 27.43C162.699 27.6233 162.459 27.78 162.179 27.9C161.905 28.02 161.582 28.0867 161.209 28.1L161.099 27.26C161.565 27.2067 161.925 27.06 162.179 26.82C162.439 26.58 162.652 26.2133 162.819 25.72C163.005 25.16 163.122 24.4867 163.169 23.7C163.222 22.9067 163.249 22.03 163.249 21.07H167.179V28H166.209V21.9H164.199ZM168.619 24.53C168.619 23.9367 168.706 23.4133 168.879 22.96C169.059 22.5067 169.299 22.13 169.599 21.83C169.906 21.5233 170.259 21.2933 170.659 21.14C171.066 20.9867 171.496 20.91 171.949 20.91C172.396 20.91 172.816 20.9867 173.209 21.14C173.609 21.2933 173.959 21.5233 174.259 21.83C174.559 22.13 174.796 22.5067 174.969 22.96C175.149 23.4133 175.239 23.9367 175.239 24.53C175.239 25.1233 175.149 25.6467 174.969 26.1C174.796 26.5533 174.559 26.9333 174.259 27.24C173.959 27.54 173.609 27.7667 173.209 27.92C172.816 28.0733 172.396 28.15 171.949 28.15C171.496 28.15 171.066 28.0733 170.659 27.92C170.259 27.7667 169.906 27.54 169.599 27.24C169.299 26.9333 169.059 26.5533 168.879 26.1C168.706 25.6467 168.619 25.1233 168.619 24.53ZM169.639 24.53C169.639 24.95 169.692 25.3333 169.799 25.68C169.906 26.02 170.056 26.31 170.249 26.55C170.449 26.79 170.689 26.9767 170.969 27.11C171.256 27.2367 171.576 27.3 171.929 27.3C172.282 27.3 172.599 27.2367 172.879 27.11C173.159 26.9767 173.396 26.79 173.589 26.55C173.789 26.31 173.942 26.02 174.049 25.68C174.156 25.3333 174.209 24.95 174.209 24.53C174.209 24.11 174.156 23.73 174.049 23.39C173.942 23.0433 173.789 22.75 173.589 22.51C173.396 22.27 173.159 22.0867 172.879 21.96C172.599 21.8267 172.282 21.76 171.929 21.76C171.576 21.76 171.256 21.8267 170.969 21.96C170.689 22.0867 170.449 22.27 170.249 22.51C170.056 22.75 169.906 23.0433 169.799 23.39C169.692 23.73 169.639 24.11 169.639 24.53ZM181.952 21.07V28H180.982V21.9H177.652V28H176.682V21.07H181.952ZM185.514 21C186.488 21 187.234 21.1867 187.754 21.56C188.281 21.9267 188.544 22.4767 188.544 23.21C188.544 23.61 188.471 23.9533 188.324 24.24C188.184 24.52 187.978 24.75 187.704 24.93C187.438 25.1033 187.111 25.23 186.724 25.31C186.338 25.39 185.901 25.43 185.414 25.43H184.644V28H183.674V21.17C183.948 21.1033 184.251 21.06 184.584 21.04C184.924 21.0133 185.234 21 185.514 21ZM185.594 21.85C185.181 21.85 184.864 21.86 184.644 21.88V24.6H185.374C185.708 24.6 186.008 24.58 186.274 24.54C186.541 24.4933 186.764 24.42 186.944 24.32C187.131 24.2133 187.274 24.07 187.374 23.89C187.474 23.71 187.524 23.48 187.524 23.2C187.524 22.9333 187.471 22.7133 187.364 22.54C187.264 22.3667 187.124 22.23 186.944 22.13C186.771 22.0233 186.568 21.95 186.334 21.91C186.101 21.87 185.854 21.85 185.594 21.85ZM189.478 24.53C189.478 23.9367 189.565 23.4133 189.738 22.96C189.918 22.5067 190.158 22.13 190.458 21.83C190.765 21.5233 191.118 21.2933 191.518 21.14C191.925 20.9867 192.355 20.91 192.808 20.91C193.255 20.91 193.675 20.9867 194.068 21.14C194.468 21.2933 194.818 21.5233 195.118 21.83C195.418 22.13 195.655 22.5067 195.828 22.96C196.008 23.4133 196.098 23.9367 196.098 24.53C196.098 25.1233 196.008 25.6467 195.828 26.1C195.655 26.5533 195.418 26.9333 195.118 27.24C194.818 27.54 194.468 27.7667 194.068 27.92C193.675 28.0733 193.255 28.15 192.808 28.15C192.355 28.15 191.925 28.0733 191.518 27.92C191.118 27.7667 190.765 27.54 190.458 27.24C190.158 26.9333 189.918 26.5533 189.738 26.1C189.565 25.6467 189.478 25.1233 189.478 24.53ZM190.498 24.53C190.498 24.95 190.552 25.3333 190.658 25.68C190.765 26.02 190.915 26.31 191.108 26.55C191.308 26.79 191.548 26.9767 191.828 27.11C192.115 27.2367 192.435 27.3 192.788 27.3C193.142 27.3 193.458 27.2367 193.738 27.11C194.018 26.9767 194.255 26.79 194.448 26.55C194.648 26.31 194.802 26.02 194.908 25.68C195.015 25.3333 195.068 24.95 195.068 24.53C195.068 24.11 195.015 23.73 194.908 23.39C194.802 23.0433 194.648 22.75 194.448 22.51C194.255 22.27 194.018 22.0867 193.738 21.96C193.458 21.8267 193.142 21.76 192.788 21.76C192.435 21.76 192.115 21.8267 191.828 21.96C191.548 22.0867 191.308 22.27 191.108 22.51C190.915 22.75 190.765 23.0433 190.658 23.39C190.552 23.73 190.498 24.11 190.498 24.53ZM202.672 21.07C202.465 21.2967 202.232 21.55 201.972 21.83C201.712 22.1033 201.438 22.3867 201.152 22.68C200.872 22.9667 200.592 23.25 200.312 23.53C200.032 23.81 199.768 24.07 199.522 24.31C199.808 24.51 200.112 24.7567 200.432 25.05C200.752 25.3433 201.065 25.6567 201.372 25.99C201.678 26.3233 201.965 26.6633 202.232 27.01C202.505 27.3567 202.732 27.6867 202.912 28H201.772C201.572 27.6867 201.342 27.3733 201.082 27.06C200.822 26.74 200.545 26.4367 200.252 26.15C199.965 25.8567 199.672 25.5867 199.372 25.34C199.078 25.0933 198.792 24.8833 198.512 24.71V28H197.542V21.07H198.512V24.13C198.745 23.91 199.002 23.6633 199.282 23.39C199.562 23.11 199.838 22.83 200.112 22.55C200.385 22.27 200.642 22.0033 200.882 21.75C201.128 21.49 201.335 21.2633 201.502 21.07H202.672ZM208.803 28C208.689 27.7 208.583 27.4067 208.483 27.12C208.383 26.8267 208.279 26.53 208.173 26.23H205.033L204.403 28H203.393C203.659 27.2667 203.909 26.59 204.143 25.97C204.376 25.3433 204.603 24.75 204.823 24.19C205.049 23.63 205.273 23.0967 205.493 22.59C205.713 22.0767 205.943 21.57 206.183 21.07H207.073C207.313 21.57 207.543 22.0767 207.763 22.59C207.983 23.0967 208.203 23.63 208.423 24.19C208.649 24.75 208.879 25.3433 209.113 25.97C209.346 26.59 209.596 27.2667 209.863 28H208.803ZM207.893 25.43C207.679 24.85 207.466 24.29 207.253 23.75C207.046 23.2033 206.829 22.68 206.603 22.18C206.369 22.68 206.146 23.2033 205.933 23.75C205.726 24.29 205.519 24.85 205.313 25.43H207.893ZM214.789 21.07V21.91H212.609V28H211.639V21.91H209.459V21.07H214.789Z" fill="#002946"/>
</svg>
