<?xml version="1.0" encoding="utf-8"?><svg viewBox="0 0 384 512" xmlns="http://www.w3.org/2000/svg" xmlns:xlink="http://www.w3.org/1999/xlink"><style>:root>svg{display:none}:root>svg:target{display:block}</style><svg viewBox="0 0 10 7" id="arrow-down" xmlns="http://www.w3.org/2000/svg"><path fill-rule="evenodd" clip-rule="evenodd" d="M8.4 0l1.5 1.5-4.95 4.95L0 1.5 1.5 0l3.45 3.45L8.4 0z"/></svg><svg viewBox="0 0 13 30" id="arrow-next" xmlns="http://www.w3.org/2000/svg"><path fill-rule="evenodd" clip-rule="evenodd" d="M0 1.161L1.629 0l10.414 14.58L1.628 29.161 0 27.999 9.585 14.58 0 1.161z"/></svg><svg viewBox="0 0 13 30" id="arrow-prev" xmlns="http://www.w3.org/2000/svg"><path fill-rule="evenodd" clip-rule="evenodd" d="M12.043 1.161L10.414 0 0 14.58l10.415 14.581 1.628-1.162L2.458 14.58l9.585-13.419z"/></svg><svg viewBox="0 0 46 9" id="arrow-right" xmlns="http://www.w3.org/2000/svg"><g clip-path="url(#dclip0_54_32)"><path d="M45.6 4.1L41.5 0v3.1H0v2h41.5v3.1l4.1-4.1z"/></g><defs><clipPath id="dclip0_54_32"><path d="M0 0h45.6v8.2H0z"/></clipPath></defs></svg><svg viewBox="0 0 384 512" id="arrow-up" xmlns="http://www.w3.org/2000/svg"><!--! Font Awesome Pro 6.0.0 by @fontawesome - https://fontawesome.com License - https://fontawesome.com/license (Commercial License) Copyright 2022 Fonticons, Inc.--><path d="M374.6 246.6c-6.2 6.3-14.4 9.4-22.6 9.4s-16.38-3.125-22.62-9.375L224 141.3V448c0 17.69-14.33 31.1-31.1 31.1S160 465.7 160 448V141.3L54.63 246.6c-12.5 12.5-32.75 12.5-45.25 0s-12.5-32.75 0-45.25l160-160c12.5-12.5 32.75-12.5 45.25 0l160 160c12.47 12.55 12.47 32.75-.03 45.25z"/></svg><svg viewBox="0 0 20 20" id="basket" xmlns="http://www.w3.org/2000/svg"><g clip-path="url(#fclip0_55_442)"><path d="M19.826 4.488a.822.822 0 00-.647-.316H3.54l-.233-2.59A.821.821 0 002.49.834H.821a.821.821 0 000 1.643h.918l.9 10.03v.036a.824.824 0 00.012.092l.033.367.002.02c.1.866.542 1.615 1.181 2.121-.331.423-.53.955-.53 1.532a2.493 2.493 0 002.49 2.49 2.493 2.493 0 002.342-3.337h4.496a2.493 2.493 0 002.342 3.338 2.493 2.493 0 002.49-2.49 2.493 2.493 0 00-2.49-2.49H5.833a1.525 1.525 0 01-1.402-.926l13.127-.771a.821.821 0 00.748-.621l1.67-6.675a.822.822 0 00-.15-.705z"/></g><defs><clipPath id="fclip0_55_442"><path d="M0 0h20v20H0z"/></clipPath></defs></svg><svg viewBox="0 0 37 40" id="certificate" xmlns="http://www.w3.org/2000/svg"><g fill-rule="evenodd" clip-rule="evenodd"><path d="M24.03 12.822H7.65a.688.688 0 100 1.375h16.38a.688.688 0 100-1.375zM26.86 16.12H10.48a.688.688 0 000 1.374h16.38a.688.688 0 100-1.375z"/><path d="M36.123 27.74l-9.352-17.324a5.274 5.274 0 004.174-5.151A5.271 5.271 0 0025.68 0H6.55A6.437 6.437 0 00.995 3.135 6.437 6.437 0 00.81 9.51l8.53 16.195H6.898a5.271 5.271 0 00-5.265 5.265 5.271 5.271 0 005.265 5.266h18.296v3.077a.687.687 0 001.13.525l2.149-1.811 2.148 1.811a.687.687 0 001.13-.526v-3.118a5.715 5.715 0 004.302-2.855 5.722 5.722 0 00.071-5.599zM25.68 1.375a3.894 3.894 0 013.89 3.89 3.894 3.894 0 01-3.888 3.89H10.094a5.252 5.252 0 001.72-3.89c0-1.54-.663-2.926-1.72-3.89H25.68zM6.897 34.86a3.894 3.894 0 01-3.89-3.89 3.894 3.894 0 013.89-3.89h3.168l.668 1.268.022.045a4.348 4.348 0 01-.093 4.33 4.348 4.348 0 01-3.765 2.137zm23.479 2.973l-1.461-1.231a.686.686 0 00-.886 0l-1.46 1.231v-5.838l.024.012c.06.03.121.06.183.087l.021.01a4.203 4.203 0 003.35 0l.022-.01a4.11 4.11 0 00.18-.087l.027-.012v5.838zm-.22-7.328c-.44.336-.98.547-1.563.572-1.57.068-2.921-1.228-2.921-2.797 0-1.544 1.256-2.8 2.8-2.8 1.544 0 2.8 1.256 2.8 2.8 0 .894-.441 1.708-1.117 2.224zm4.703 2.15a4.35 4.35 0 01-3.108 2.15V30.86c.56-.71.896-1.607.896-2.58a4.18 4.18 0 00-4.175-4.175 4.18 4.18 0 00-4.175 4.175c0 .973.335 1.87.896 2.58v4H10.64a5.81 5.81 0 001.203-1.433 5.71 5.71 0 00.127-5.68l-.884-1.68-.002-.003L2.027 8.869a5.073 5.073 0 01.146-5.024 5.073 5.073 0 014.377-2.47 3.894 3.894 0 013.89 3.89 3.894 3.894 0 01-3.89 3.89.688.688 0 100 1.375h18.72l9.643 17.863a4.356 4.356 0 01-.054 4.262z"/></g></svg><svg viewBox="0 0 40 40" id="delivery" xmlns="http://www.w3.org/2000/svg"><path fill-rule="evenodd" clip-rule="evenodd" d="M39.488 4.686L20.155.019a.68.68 0 00-.294-.005l-19.328 4a.667.667 0 00-.533.65v30.667c0 .315.224.592.533.65l19.334 4a.573.573 0 00.288-.005l19.333-4.666a.671.671 0 00.512-.646V5.331a.662.662 0 00-.512-.645zM8.667 3.694L10 3.416V9.48l-1.333.336V3.694zM1.333 5.208l6-1.237v1.963l-6 1.242V5.208zm0 27.611l6 1.248v1.963l-6-1.243v-1.968zM10 36.579l-1.333-.277v-6.118L10 30.52v6.059zm9.333 1.93l-8-1.653v-1.973l8 1.659v1.968zm0-3.333l-8-1.659v-3.525a.667.667 0 00-.506-.645L8.16 28.68a.666.666 0 00-.827.646v3.365l-6-1.238V8.542l6-1.243v3.365a.666.666 0 00.827.65l2.667-.666a.667.667 0 00.506-.645V6.477l8-1.658v30.357zm0-31.722l-8 1.658V3.14l8-1.653v1.968zM30 3.763l1.333.32V9.81L30 9.475V3.763zm-9.333-2.25l8 1.935v1.963l-8-1.93V1.511zm8 35.04l-8 1.93V36.52l8-1.936v1.968zm2.666-.646l-1.333.32V30.52l1.333-.336v5.723zm7.334-1.765l-6 1.445V33.63l6-1.451v1.963zm0-3.334l-6 1.451v-2.928c0-.208-.096-.4-.256-.523a.664.664 0 00-.571-.122l-2.667.666a.666.666 0 00-.506.645v3.222l-8 1.93V4.847l8 1.936v3.22c0 .305.208.571.506.646l2.667.667a.666.666 0 00.827-.65V7.735l6 1.45v21.622zm0-22.992l-6-1.45V4.408l6 1.446v1.962z"/></svg><svg viewBox="0 0 40 47" id="metalworking" xmlns="http://www.w3.org/2000/svg"><g fill-rule="evenodd" clip-rule="evenodd"><path d="M40 20.722c0-7.4-5.584-13.51-12.758-14.365l-3.77-4.64A4.071 4.071 0 0020.3.207h-4.893a4.092 4.092 0 00-4.086 4.088c0 .947.331 1.87.932 2.598l3.001 3.644c-.252.255-.498.516-.733.79l-.454.531 2.5 2.5a10.966 10.966 0 00-2.227 6.604c0 4.02 2.185 7.532 5.425 9.434H3.774v-.755h-1.51v.755H0v1.51h2.264v.754h1.51v-.754h4.528v3.019H5.283v5.283a2.267 2.267 0 002.264 2.264h.755v2.264A2.267 2.267 0 0010.566 47h1.51a2.267 2.267 0 002.264-2.264v-2.264h16.603v2.264A2.267 2.267 0 0033.208 47h1.509a2.267 2.267 0 002.264-2.264v-2.264h.755A2.267 2.267 0 0040 40.208v-9.812h-3.725A14.441 14.441 0 0040 20.722zM13.418 5.934a2.58 2.58 0 011.99-4.217h4.893c.78 0 1.509.347 2 .952l2.913 3.585c-.613.013-1.22.064-1.82.154L21.127 3.62a1.062 1.062 0 00-.828-.394h-4.892a1.07 1.07 0 00-.825 1.748l3.006 3.65c-.42.276-.825.575-1.217.896l-2.954-3.586zm8.313.82c-.979.266-1.924.635-2.822 1.099l-2.567-3.117h3.749l1.64 2.018zm-5.597 5.037a12.946 12.946 0 019.389-4.036c7.15 0 12.968 5.817 12.968 12.967 0 3.558-1.463 6.941-4.037 9.389l-7.537-7.537-.531.462a2.237 2.237 0 01-1.48.568 2.267 2.267 0 01-2.264-2.264c0-.686.308-1.183.566-1.48l.464-.53-7.538-7.54zm16.471 18.605h-1.79c.37-.217.728-.458 1.072-.718l.718.718zM15.85 20.962c0-1.985.64-3.925 1.797-5.526l4.008 4.009a3.735 3.735 0 00-.522 1.895 3.778 3.778 0 003.774 3.773c.665 0 1.318-.182 1.894-.521l4.008 4.008a9.455 9.455 0 01-5.525 1.796c-5.202 0-9.434-4.232-9.434-9.434zM12.83 31.906h12.076v-.02c.126.005.25.02.377.02 1.432 0 2.84-.293 4.151-.83v3.849H12.83v-3.02zm-3.019 0h1.51v3.019H9.81v-3.02zm3.02 12.83a.755.755 0 01-.755.755h-1.51a.755.755 0 01-.755-.755v-2.264h3.02v2.264zm22.64 0a.755.755 0 01-.754.755h-1.51a.756.756 0 01-.754-.755v-2.264h3.019v2.264zm3.02-12.83v8.302a.756.756 0 01-.755.754H7.547a.755.755 0 01-.755-.754v-3.774h24.151v-4.528h7.548z"/><path d="M25.283 9.264c-2.09 0-4.141.558-5.933 1.615l.767 1.3a10.177 10.177 0 015.166-1.405c4.292 0 8.148 2.714 9.595 6.751l1.42-.508a11.727 11.727 0 00-11.015-7.753zM36.697 18.387l-1.473.33c.088.39.153.79.194 1.19l1.501-.154a11.737 11.737 0 00-.222-1.366zM34.717 33.415a2.267 2.267 0 00-2.264 2.264 2.267 2.267 0 002.264 2.264 2.267 2.267 0 002.264-2.264 2.267 2.267 0 00-2.264-2.264zm0 3.019a.755.755 0 11.001-1.51.755.755 0 01-.001 1.51z"/></g></svg><svg viewBox="0 0 40 45" id="test" xmlns="http://www.w3.org/2000/svg"><g fill-rule="evenodd" clip-rule="evenodd"><path d="M27.168 13.81V8.93h.266a1.85 1.85 0 001.858-1.839V5.778h.266a1.85 1.85 0 001.858-1.838V1.839A1.85 1.85 0 0029.558 0h-3.186a.792.792 0 00-.797.788c0 .435.357.788.797.788h3.186c.146 0 .265.118.265.262V3.94c0 .145-.119.262-.265.262H10.442a.264.264 0 01-.265-.262V1.839c0-.145.119-.263.265-.263h12.744c.44 0 .796-.353.796-.788A.792.792 0 0023.186 0H10.442a1.85 1.85 0 00-1.858 1.839v2.1a1.85 1.85 0 001.858 1.84h.266V7.09a1.85 1.85 0 001.858 1.839h.266v4.88H1.947a1.85 1.85 0 00-1.859 1.838v2.1a1.85 1.85 0 001.859 1.84h6.371c.44 0 .797-.353.797-.789a.792.792 0 00-.797-.787H6.8l2.655-2.627h6.413l-2.655 2.627h-1.709a.792.792 0 00-.796.787c0 .436.356.788.796.788h22.567v7.88H29.07l-.88-2.613a.796.796 0 00-.756-.539H12.566a.796.796 0 00-.755.539l-.88 2.613H5.928V21.95a.792.792 0 00-.796-.788.792.792 0 00-.797.788v6.304c0 .435.357.788.797.788h6.371a.796.796 0 00.756-.539l.88-2.613h13.72l.88 2.613a.795.795 0 00.756.539h6.372c.44 0 .796-.353.796-.788v-8.668h2.39a1.85 1.85 0 001.858-1.838v-2.101a1.85 1.85 0 00-1.859-1.839H27.168zm-22.62 4.202H1.947a.264.264 0 01-.266-.263v-2.101c0-.145.12-.263.266-.263h5.256l-2.655 2.627zM25.044 5.778H27.7v1.313a.264.264 0 01-.265.263H25.31a.264.264 0 01-.266-.263V5.778zM12.566 7.354a.264.264 0 01-.265-.263V5.778h2.655v1.313c0 .145-.12.263-.266.263h-2.124zm1.859 1.576h.265A1.85 1.85 0 0016.55 7.09V5.778h6.902v1.313A1.85 1.85 0 0025.31 8.93h.265v1.576h-8.76a.792.792 0 00-.797.788c0 .435.356.788.796.788h8.761v1.727h-11.15V8.93zm3.696 6.455h6.413l-2.655 2.627h-6.413l2.655-2.627zm6.01 2.627l2.656-2.627H33.2l-2.655 2.627h-6.413zm14.188-.263a.264.264 0 01-.266.263h-5.255l2.654-2.627h2.601c.147 0 .266.118.266.263v2.1zM35.664 39.124v-5.616a.792.792 0 00-.797-.788h-7.921l-.88-2.613a.799.799 0 00-1.008-.498.786.786 0 00-.504.996l1.062 3.152a.795.795 0 00.756.539h7.699v4.828H5.929v-4.828h7.7a.796.796 0 00.755-.539l.88-2.613h6.86c.44 0 .796-.353.796-.788a.792.792 0 00-.796-.788H14.69a.796.796 0 00-.755.539l-.88 2.613H5.131a.792.792 0 00-.796.788v5.616h-2.39a1.85 1.85 0 00-1.858 1.839v2.101a1.85 1.85 0 001.859 1.839h36.106a1.85 1.85 0 001.859-1.839v-2.101a1.85 1.85 0 00-1.859-1.839h-2.39zM1.947 43.327a.264.264 0 01-.266-.263v-2.101c0-.145.12-.263.266-.263h5.256l-2.655 2.627H1.947zm4.853 0L9.455 40.7h6.413l-2.655 2.627H6.8zm8.666 0l2.655-2.627h6.413l-2.655 2.627h-6.413zm8.666 0l2.655-2.627H33.2l-2.655 2.627h-6.413zm14.187-.263a.264.264 0 01-.266.263h-5.256l2.655-2.627h2.601c.147 0 .266.118.266.263v2.101z"/><path d="M17.876 8.93h4.248c.44 0 .796-.353.796-.788a.792.792 0 00-.796-.788h-4.248a.792.792 0 00-.796.788c0 .435.356.788.796.788z"/></g></svg></svg>