<?xml version="1.0" encoding="utf-8"?><svg viewBox="0 0 20 20" xmlns="http://www.w3.org/2000/svg" xmlns:xlink="http://www.w3.org/1999/xlink"><style>:root>svg{display:none}:root>svg:target{display:block}</style><svg viewBox="0 0 10 7" id="arrow-down" xmlns="http://www.w3.org/2000/svg"><path fill-rule="evenodd" clip-rule="evenodd" d="M8.4 0l1.5 1.5-4.95 4.95L0 1.5 1.5 0l3.45 3.45L8.4 0z"/></svg><svg viewBox="0 0 20 20" id="basket" xmlns="http://www.w3.org/2000/svg"><g clip-path="url(#bclip0_55_442)"><path d="M19.826 4.488a.822.822 0 00-.647-.316H3.54l-.233-2.59A.821.821 0 002.49.834H.821a.821.821 0 000 1.643h.918l.9 10.03v.036a.824.824 0 00.012.092l.033.367.002.02c.1.866.542 1.615 1.181 2.121-.331.423-.53.955-.53 1.532a2.493 2.493 0 002.49 2.49 2.493 2.493 0 002.342-3.337h4.496a2.493 2.493 0 002.342 3.338 2.493 2.493 0 002.49-2.49 2.493 2.493 0 00-2.49-2.49H5.833a1.525 1.525 0 01-1.402-.926l13.127-.771a.821.821 0 00.748-.621l1.67-6.675a.822.822 0 00-.15-.705z"/></g><defs><clipPath id="bclip0_55_442"><path d="M0 0h20v20H0z"/></clipPath></defs></svg></svg>