<svg width="20" height="20" viewBox="0 0 20 20" fill="none" xmlns="http://www.w3.org/2000/svg">
<g clip-path="url(#clip0_55_442)">
<path d="M19.8261 4.48787C19.6704 4.28851 19.4316 4.17199 19.1786 4.17199H3.54078L3.30833 1.58241C3.27031 1.15893 2.91539 0.834442 2.49023 0.834442H0.821381C0.367744 0.834442 0 1.20219 0 1.65582C0 2.10946 0.367744 2.4772 0.821381 2.4772H1.73929L2.63961 12.5074C2.6398 12.5192 2.63921 12.5308 2.63988 12.5427C2.64172 12.5742 2.64582 12.6051 2.65107 12.6354L2.684 13.0021C2.68462 13.0091 2.68533 13.016 2.68615 13.0228C2.78597 13.8876 3.22791 14.6369 3.86698 15.1432C3.53585 15.5661 3.3377 16.0978 3.3377 16.6753C3.3377 18.0484 4.45482 19.1656 5.82789 19.1656C7.20101 19.1656 8.31812 18.0484 8.31812 16.6753C8.31812 16.3779 8.26552 16.0925 8.16945 15.8279H12.665C12.5689 16.0925 12.5163 16.3779 12.5163 16.6753C12.5163 18.0484 13.6334 19.1656 15.0066 19.1656C16.3797 19.1656 17.4968 18.0484 17.4968 16.6753C17.4968 15.3022 16.3797 14.1851 15.0066 14.1851H5.83345C5.20951 14.1851 4.6658 13.8087 4.43112 13.2602L17.5579 12.4887C17.9162 12.4677 18.2194 12.2163 18.3065 11.868L19.9755 5.19253C20.0368 4.94721 19.9817 4.68727 19.8261 4.48787Z" fill="#768189"/>
</g>
<defs>
<clipPath id="clip0_55_442">
<rect width="20" height="20" fill="white"/>
</clipPath>
</defs>
</svg>
