<svg width="37" height="40" viewBox="0 0 37 40" fill="none" xmlns="http://www.w3.org/2000/svg">
<g id="diploma">
<path id="Shape" fill-rule="evenodd" clip-rule="evenodd" d="M24.03 12.8218H7.64955C7.26987 12.8218 6.96198 13.1295 6.96198 13.5094C6.96198 13.8891 7.26979 14.1969 7.64955 14.1969H24.03C24.4097 14.1969 24.7176 13.8892 24.7176 13.5094C24.7176 13.1296 24.4097 12.8218 24.03 12.8218Z" fill="#002946"/>
<path id="Shape_2" fill-rule="evenodd" clip-rule="evenodd" d="M26.8607 16.1193H10.4802C10.1006 16.1193 9.79266 16.427 9.79266 16.8069C9.79266 17.1867 10.1005 17.4944 10.4802 17.4944H26.8607C27.2404 17.4944 27.5483 17.1867 27.5483 16.8069C27.5483 16.427 27.2404 16.1193 26.8607 16.1193Z" fill="#002946"/>
<path id="Shape_3" fill-rule="evenodd" clip-rule="evenodd" d="M36.1231 27.7402L26.7709 10.4157C29.1524 9.91195 30.9452 7.79414 30.9452 5.265C30.9452 2.36195 28.5833 0 25.6802 0H6.54946C4.25665 0 2.1804 1.17195 0.995631 3.135C-0.189134 5.09812 -0.258431 7.48125 0.810084 9.50984L9.34079 25.7053H6.89719C3.99407 25.7053 1.63212 28.0673 1.63212 30.9704C1.63212 33.8735 3.99399 36.2355 6.89719 36.2355H25.1931V39.3125C25.1931 39.58 25.3481 39.8232 25.5908 39.9359C25.6834 39.9791 25.7822 40 25.8805 40C26.0397 40 26.1974 39.9446 26.3238 39.838L28.4718 38.0266L30.6199 39.838C30.8244 40.0105 31.1104 40.0488 31.3529 39.9359C31.5955 39.8232 31.7506 39.5799 31.7506 39.3124V36.1939C33.5513 35.9803 35.1353 34.9386 36.0523 33.3393C37.0499 31.5993 37.0766 29.506 36.1231 27.7402ZM25.6802 1.37508C27.8252 1.37508 29.5701 3.12008 29.5701 5.265C29.5701 7.4093 27.826 9.15398 25.6819 9.15484C25.6812 9.15484 25.6804 9.15484 25.6798 9.15484H10.094C11.1506 8.19125 11.8145 6.80414 11.8145 5.26492C11.8145 3.72563 11.1506 2.33859 10.094 1.37508H25.6802ZM6.89719 34.8604C4.75235 34.8604 3.00727 33.1154 3.00727 30.9704C3.00727 28.8254 4.75227 27.0805 6.89719 27.0805H10.0653L10.733 28.348C10.7399 28.3634 10.7473 28.3784 10.7552 28.3932C11.4958 29.7651 11.4611 31.3833 10.6624 32.7222C9.86376 34.0611 8.45618 34.8604 6.89719 34.8604ZM30.3756 37.8332L28.915 36.6016C28.787 36.4936 28.6294 36.4396 28.4718 36.4396C28.3142 36.4396 28.1566 36.4936 28.0286 36.6016L26.5681 37.8332C26.5681 37.8332 26.5681 35.5496 26.5681 35.5461V31.9948C26.5764 31.9991 26.5849 32.0027 26.5931 32.0068C26.6532 32.0371 26.714 32.0661 26.7756 32.0937C26.7828 32.0969 26.7899 32.1002 26.7971 32.1034C27.853 32.5671 29.0905 32.5677 30.1461 32.1034C30.1537 32.1002 30.1611 32.0966 30.1688 32.0932C30.2299 32.0659 30.2903 32.0372 30.3499 32.007C30.3584 32.0027 30.3672 31.9991 30.3756 31.9948V37.8332H30.3756ZM30.1553 30.5045C29.7154 30.8409 29.1758 31.0517 28.5934 31.077C27.0231 31.1454 25.6717 29.8488 25.6717 28.28C25.6717 26.736 26.9278 25.48 28.4717 25.48C30.0156 25.48 31.2717 26.736 31.2717 28.28C31.2718 29.1742 30.831 29.9877 30.1553 30.5045ZM34.8593 32.6554C34.1891 33.8241 33.0518 34.6015 31.7506 34.8059V30.8602C32.311 30.1495 32.6468 29.2535 32.6468 28.28C32.6468 25.9779 30.7738 24.1049 28.4717 24.1049C26.1696 24.1049 24.2966 25.9779 24.2966 28.28C24.2966 29.2534 24.6324 30.1494 25.1929 30.8602V34.8603H10.6404C11.1075 34.459 11.5147 33.9776 11.8434 33.4266C12.8846 31.6814 12.9374 29.5745 11.9875 27.7813C11.9821 27.7695 11.9763 27.7577 11.9702 27.7463L11.0862 26.0678C11.0855 26.0664 11.0847 26.065 11.084 26.0637L2.0268 8.86906C1.18477 7.27047 1.23946 5.3925 2.17305 3.84547C3.10665 2.29859 4.74274 1.37508 6.54954 1.37508C8.69438 1.37508 10.4395 3.12008 10.4395 5.265C10.4395 7.40992 8.69446 9.15492 6.54954 9.15492C6.16985 9.15492 5.86196 9.46266 5.86196 9.8425C5.86196 10.2223 6.16977 10.5301 6.54954 10.5301H25.2701L34.9132 28.3933C35.6388 29.7377 35.6188 31.331 34.8593 32.6554Z" fill="#002946"/>
</g>
</svg>
