<svg width="40" height="40" viewBox="0 0 40 40" fill="none" xmlns="http://www.w3.org/2000/svg">
<g id="surface1">
<path id="Shape" fill-rule="evenodd" clip-rule="evenodd" d="M39.4879 4.68562L20.1546 0.0189541C20.0588 -0.00250423 19.9573 -0.00771255 19.8612 0.0135374L0.533333 4.01354C0.223958 4.0775 0 4.34958 0 4.66416V35.3308C0 35.6456 0.223958 35.9229 0.533333 35.9817L19.8667 39.9817C19.9094 39.9923 19.9573 39.9975 20 39.9975C20.0533 39.9975 20.1067 39.9923 20.1546 39.9762L39.4879 35.3096C39.7867 35.235 40 34.9683 40 34.6642V5.33083C40 5.02166 39.7867 4.755 39.4879 4.68562ZM8.66667 3.69354L10 3.41625V9.4802L8.66667 9.81625V3.69354ZM1.33333 5.20833L7.33333 3.97083V5.93354L1.33333 7.17625V5.20833ZM1.33333 32.819L7.33333 34.0669V36.0296L1.33333 34.7869V32.819ZM10 36.579L8.66667 36.3017V30.1842L10 30.5202V36.579ZM19.3333 38.5096L11.3333 36.8562V34.8829L19.3333 36.5417V38.5096ZM19.3333 35.1762L11.3333 33.5175V29.9923C11.3333 29.6883 11.1254 29.4217 10.8267 29.3469L8.16 28.6802C7.96271 28.6323 7.74937 28.675 7.58938 28.8029C7.42937 28.9308 7.33333 29.1229 7.33333 29.3256V32.6908L1.33333 31.4535V8.54166L7.33333 7.29895V10.6642C7.33333 10.8669 7.42937 11.0642 7.58938 11.1923C7.74937 11.3202 7.96271 11.3629 8.16 11.315L10.8267 10.6483C11.1254 10.5735 11.3333 10.3069 11.3333 10.0029V6.4775L19.3333 4.81895V35.1762ZM19.3333 3.45354L11.3333 5.11229V3.13895L19.3333 1.48562V3.45354ZM30 3.76291L31.3333 4.08291V9.81083L30 9.475V3.76291ZM20.6667 1.51229L28.6667 3.44833V5.41083L20.6667 3.4802V1.51229ZM28.6667 36.5523L20.6667 38.4829V36.5202L28.6667 34.5842V36.5523ZM31.3333 35.9069L30 36.2269V30.5202L31.3333 30.1842V35.9069ZM38.6667 34.1417L32.6667 35.5869V33.6296L38.6667 32.179V34.1417ZM38.6667 30.8083L32.6667 32.259V29.3308C32.6667 29.1229 32.5706 28.9308 32.4106 28.8083C32.2506 28.6802 32.0373 28.6375 31.84 28.6856L29.1733 29.3523C28.8746 29.4269 28.6667 29.6935 28.6667 29.9975V33.219L20.6667 35.1496V4.84562L28.6667 6.78166V10.0029C28.6667 10.3069 28.8746 10.5735 29.1733 10.6483L31.84 11.315C32.0373 11.3629 32.2506 11.3202 32.4106 11.1923C32.5706 11.0642 32.6667 10.8723 32.6667 10.6642V7.73625L38.6667 9.18687V30.8083ZM38.6667 7.81625L32.6667 6.36562V4.40833L38.6667 5.85354V7.81625Z" fill="#002946"/>
</g>
</svg>
