<svg width="20" height="20" viewBox="0 0 20 20" fill="none" xmlns="http://www.w3.org/2000/svg">
<path d="M1.02715 12.7202L11.1914 2.66878C12.8756 1.00317 15.6064 1.00317 17.2906 2.66878C18.9747 4.33436 18.9747 7.03446 17.2906 8.70007L8.14221 17.7463C7.0192 18.8565 5.19938 18.8565 4.07634 17.7463C2.95333 16.6361 2.95333 14.8356 4.07634 13.7254L13.2247 4.67918C13.7859 4.12371 14.6961 4.12371 15.258 4.67918C15.8191 5.23389 15.8191 6.13414 15.258 6.68961L7.12627 14.7306L8.14293 15.7358L16.2739 7.69412C17.3969 6.58394 17.3969 4.78341 16.2739 3.67326C15.1509 2.56308 13.3311 2.56308 12.2081 3.67326L3.05968 12.7195C1.37553 14.3851 1.37553 17.0852 3.05968 18.7508C4.74387 20.4164 7.47465 20.4164 9.1588 18.7508L18.8155 9.20197L18.7805 9.16701C20.5347 6.93669 20.3804 3.71253 18.3072 1.66286C16.2339 -0.386835 12.9748 -0.540327 10.7188 1.19524L10.6838 1.16025L0.0112133 11.7143L1.02715 12.7202Z" fill="#005A8D"/>
</svg>
